# xmcd
#
# Track frame offsets:
#	150
#	17252
#	32029
#	49656
#	65933
#	77860
#	90911
#	108538
#	120840
#	132092
#	145669
#	160671
#	174998
#	188650
#	204552
#	223829
#
# Disc length: 3211 seconds
#
# Revision: 3
# Processed by: cddbd v1.5.1PL0 Copyright (c) Steve Scherf et al.
# Submitted via: audiograbber 1.83.01
#
DISCID=ce0c8910
DTITLE=Party Tyme Karaoke - SYB-1016
DYEAR=1900
DGENRE=Karaoke
TTITLE0=Garth Brooks - Two Pina Coladas
TTITLE1=Tim McGraw - I Like It I Love It
TTITLE2=Marc Chestnut - I Don't Want To Miss A Thing
TTITLE3=Neil McCoy - The Shake
TTITLE4=Alan Jackson - Little Bitty
TTITLE5=Clay Walker - Then What
TTITLE6=Brooks and Dunn - If You See Him If You See Her
TTITLE7=Joe Diffie - Texas Size Heartache
TTITLE8=Garth Brooks - Long Neck Bottle
TTITLE9=Vince Gill - A Little More Love
TTITLE10=Wade Hayes - The Day That She Left Tulsa
TTITLE11=Tracy Byrd - I'm From The Country
TTITLE12=Alan Jackson - Who's Cheatin' Who
TTITLE13=George Strait - I Just Wanna Dance With You
TTITLE14=John Michael Montgomery - I Swear
TTITLE15=Collin Raye - On The Verge
EXTD=
EXTT0=
EXTT1=
EXTT2=
EXTT3=
EXTT4=
EXTT5=
EXTT6=
EXTT7=
EXTT8=
EXTT9=
EXTT10=
EXTT11=
EXTT12=
EXTT13=
EXTT14=
EXTT15=
PLAYORDER=
